<?xml version="1.0" encoding="UTF-8"?>
<svg width="14px" height="12px" viewBox="0 0 14 12" version="1.1" xmlns="http://www.w3.org/2000/svg" xmlns:xlink="http://www.w3.org/1999/xlink">
    <!-- Generator: Sketch 48.2 (47327) - http://www.bohemiancoding.com/sketch -->
    <title>heartfill</title>
    <desc>Created with Sketch.</desc>
    <defs></defs>
    <g id="1.0.3-Login" stroke="none" stroke-width="1" fill="none" fill-rule="evenodd" transform="translate(-54.000000, -311.000000)">
        <path d="M64.21875,311.5 C65.3229222,311.5 66.2291631,311.822913 66.9375,312.46875 C67.6458369,313.114587 68,313.999994 68,315.125 C68,316.270839 67.5729209,317.364578 66.71875,318.40625 C65.8854125,319.427088 64.8437562,320.343746 63.59375,321.15625 C63.0937475,321.489585 62.6250022,321.765624 62.1875,321.984375 C61.7499978,322.203126 61.4375009,322.34375 61.25,322.40625 L61,322.5 C60.4166637,322.354166 59.5520891,321.906254 58.40625,321.15625 C57.1562438,320.343746 56.1145875,319.427088 55.28125,318.40625 C54.4270791,317.364578 54,316.270839 54,315.125 C54,313.999994 54.3541631,313.114587 55.0625,312.46875 C55.7708369,311.822913 56.6770778,311.5 57.78125,311.5 C58.4270866,311.5 59.046872,311.645832 59.640625,311.9375 C60.234378,312.229168 60.6874984,312.635414 61,313.15625 C61.3125016,312.635414 61.765622,312.229168 62.359375,311.9375 C62.953128,311.645832 63.5729134,311.5 64.21875,311.5 Z" id="heartfill" fill="#9D015C"></path>
    </g>
</svg>