<?xml version="1.0" encoding="UTF-8"?>
<svg width="14px" height="12px" viewBox="0 0 14 12" version="1.1" xmlns="http://www.w3.org/2000/svg" xmlns:xlink="http://www.w3.org/1999/xlink">
    <!-- Generator: Sketch 48.2 (47327) - http://www.bohemiancoding.com/sketch -->
    <title>heartline</title>
    <desc>Created with Sketch.</desc>
    <defs></defs>
    <g id="1.0.3-Login" stroke="none" stroke-width="1" fill="none" fill-rule="evenodd" transform="translate(-26.000000, -311.000000)">
        <path d="M36.21875,311.5 C37.3229222,311.5 38.2291631,311.822913 38.9375,312.46875 C39.6458369,313.114587 40,313.999994 40,315.125 C40,316.270839 39.5729209,317.364578 38.71875,318.40625 C37.8854125,319.427088 36.8437562,320.343746 35.59375,321.15625 C35.0937475,321.489585 34.6250022,321.765624 34.1875,321.984375 C33.7499978,322.203126 33.4375009,322.34375 33.25,322.40625 L33,322.5 C32.4166637,322.354166 31.5520891,321.906254 30.40625,321.15625 C29.1562438,320.343746 28.1145875,319.427088 27.28125,318.40625 C26.4270791,317.364578 26,316.270839 26,315.125 C26,313.999994 26.3541631,313.114587 27.0625,312.46875 C27.7708369,311.822913 28.6770778,311.5 29.78125,311.5 C30.4270866,311.5 31.046872,311.645832 31.640625,311.9375 C32.234378,312.229168 32.6874984,312.635414 33,313.15625 C33.3125016,312.635414 33.765622,312.229168 34.359375,311.9375 C34.953128,311.645832 35.5729134,311.5 36.21875,311.5 Z M38.34375,318.09375 C38.7395853,317.635414 39.0312491,317.125003 39.21875,316.5625 C39.4062509,316.062498 39.5,315.583336 39.5,315.125 C39.5,314.145828 39.1979197,313.375003 38.59375,312.8125 C38.2812484,312.520832 37.9375019,312.322917 37.5625,312.21875 C37.1874981,312.072916 36.7395859,312 36.21875,312 C34.9270769,312 34.0000028,312.468745 33.4375,313.40625 L33,314.125 L32.5625,313.40625 C31.9999972,312.468745 31.0729231,312 29.78125,312 C29.2604141,312 28.8125019,312.072916 28.4375,312.21875 C28.0624981,312.322917 27.7187516,312.520832 27.40625,312.8125 C26.8020803,313.375003 26.5,314.145828 26.5,315.125 C26.5,315.583336 26.5937491,316.062498 26.78125,316.5625 C26.9687509,317.125003 27.2604147,317.635414 27.65625,318.09375 C28.1354191,318.677086 28.5624981,319.135415 28.9375,319.46875 C29.3125019,319.802085 29.8958294,320.229164 30.6875,320.75 C31.5625044,321.333336 32.33333,321.739582 33,321.96875 C33.66667,321.739582 34.4374956,321.333336 35.3125,320.75 C36.1041706,320.229164 36.6874981,319.802085 37.0625,319.46875 C37.4375019,319.135415 37.8645809,318.677086 38.34375,318.09375 Z" id="heartline" fill="#9D015C"></path>
    </g>
</svg>