<svg xmlns="http://www.w3.org/2000/svg" width="45.969" height="38" viewBox="0 0 45.969 38">
  <metadata><?xpacket begin="﻿" id="W5M0MpCehiHzreSzNTczkc9d"?>
<x:xmpmeta xmlns:x="adobe:ns:meta/" x:xmptk="Adobe XMP Core 5.6-c138 79.159824, 2016/09/14-01:09:01        ">
   <rdf:RDF xmlns:rdf="http://www.w3.org/1999/02/22-rdf-syntax-ns#">
      <rdf:Description rdf:about=""/>
   </rdf:RDF>
</x:xmpmeta>
                                                                                                    
                                                                                                    
                                                                                                    
                                                                                                    
                                                                                                    
                                                                                                    
                                                                                                    
                                                                                                    
                                                                                                    
                                                                                                    
                                                                                                    
                                                                                                    
                                                                                                    
                                                                                                    
                                                                                                    
                                                                                                    
                                                                                                    
                                                                                                    
                                                                                                    
                                                                                                    
                           
<?xpacket end="w"?></metadata>
<defs>
    <style>
      .cls-1 {
        fill: #4b4b4b;
        fill-rule: evenodd;
      }
    </style>
  </defs>
  <path id="Shape_1_copy" data-name="Shape 1 copy" class="cls-1" d="M77.509,80.3L55.7,61.231a1.189,1.189,0,0,0-1.412,0L32.489,80.3a1.208,1.208,0,0,0-.258,1.681,1.19,1.19,0,0,0,1.67.26L55,63.692,76.1,82.24a1.19,1.19,0,0,0,1.67-.26A1.208,1.208,0,0,0,77.509,80.3Zm-6.973-2.852V96.594H62.843V86.142c0-3.317-4.549-3.381-7.844-3.381s-7.844.064-7.844,3.381V96.594H39.461V77.447l-2.39,2V97.8a1.2,1.2,0,0,0,1.2,1.2H48.35a1.2,1.2,0,0,0,1.191-1.109,0.937,0.937,0,0,0,0-.094V86.142c0-1.99,3.477-.975,5.454-0.975s5.454-1.015,5.454.975V97.8a0.879,0.879,0,0,0,0,.093A1.2,1.2,0,0,0,61.648,99H71.731a1.2,1.2,0,0,0,1.2-1.2V79.447Z" transform="translate(-32.031 -61)"/>
</svg>
