<svg xmlns="http://www.w3.org/2000/svg" width="45.969" height="38" viewBox="0 0 45.969 38">
  <metadata><?xpacket begin="﻿" id="W5M0MpCehiHzreSzNTczkc9d"?>
<x:xmpmeta xmlns:x="adobe:ns:meta/" x:xmptk="Adobe XMP Core 5.6-c138 79.159824, 2016/09/14-01:09:01        ">
   <rdf:RDF xmlns:rdf="http://www.w3.org/1999/02/22-rdf-syntax-ns#">
      <rdf:Description rdf:about=""/>
   </rdf:RDF>
</x:xmpmeta>
                                                                                                    
                                                                                                    
                                                                                                    
                                                                                                    
                                                                                                    
                                                                                                    
                                                                                                    
                                                                                                    
                                                                                                    
                                                                                                    
                                                                                                    
                                                                                                    
                                                                                                    
                                                                                                    
                                                                                                    
                                                                                                    
                                                                                                    
                                                                                                    
                                                                                                    
                                                                                                    
                           
<?xpacket end="w"?></metadata>
<defs>
    <style>
      .cls-1 {
        fill: #fff;
        fill-rule: evenodd;
      }
    </style>
  </defs>
  <path class="cls-1" d="M357.509,200.3l-21.8-19.068a1.188,1.188,0,0,0-1.412,0L312.488,200.3a1.208,1.208,0,0,0-.258,1.681,1.191,1.191,0,0,0,1.671.26L335,183.692l21.1,18.548a1.19,1.19,0,0,0,1.67-.26A1.208,1.208,0,0,0,357.509,200.3Zm-5.778-4.055a1.2,1.2,0,0,0-1.195,1.2v19.147h-7.693V206.142c0-3.316-4.549-3.381-7.844-3.381s-7.844.065-7.844,3.381v10.452h-7.694V197.447a1.2,1.2,0,1,0-2.39,0V217.8a1.2,1.2,0,0,0,1.195,1.2H328.35a1.2,1.2,0,0,0,1.19-1.109,0.875,0.875,0,0,0,0-.094V206.142c0-1.99,3.476-.975,5.454-0.975s5.454-1.015,5.454.975V217.8a0.874,0.874,0,0,0,0,.093,1.2,1.2,0,0,0,1.191,1.11h10.083a1.2,1.2,0,0,0,1.195-1.2v-20.35A1.2,1.2,0,0,0,351.731,196.244Z" transform="translate(-312.031 -181)"/>
</svg>
