<?xml version="1.0" encoding="UTF-8"?>
<svg width="216px" height="24px" viewBox="0 0 216 24" version="1.1" xmlns="http://www.w3.org/2000/svg" xmlns:xlink="http://www.w3.org/1999/xlink">
    <!-- Generator: Sketch 49 (51002) - http://www.bohemiancoding.com/sketch -->
    <title>Corporate Logotype</title>
    <desc>Created with Sketch.</desc>
    <defs></defs>
    <g id="Page-1" stroke="none" stroke-width="1" fill="none" fill-rule="evenodd">
        <g id="Corporate-Logotype" fill="#FFFFFF" fill-rule="nonzero">
            <g id="Group" transform="translate(65.276740, 18.335937)">
                <path d="M2.8237691,4.95070298 C2.05365025,4.95070298 1.35687606,4.73067174 0.880135823,4.363953 C0.293378608,3.92389051 -2.84217094e-14,3.30046865 -2.84217094e-14,2.56703117 C-2.84217094e-14,1.8335937 0.293378608,1.24684371 0.880135823,0.806781226 C1.39354839,0.403390613 2.09032258,0.18335937 2.86044143,0.18335937 C3.85059423,0.18335937 4.62071307,0.513406235 5.24414261,1.28351559 L4.54736842,1.61356245 C4.10730051,1.13682809 3.52054329,0.880124974 2.78709677,0.880124974 C2.23701188,0.880124974 1.72359932,1.02681247 1.39354839,1.32018746 C0.953480475,1.65023433 0.73344652,2.09029681 0.73344652,2.60370305 C0.73344652,3.59384364 1.54023769,4.29060925 2.78709677,4.29060925 C3.74057725,4.29060925 4.40067912,3.88721864 4.69405772,3.11710928 L2.64040747,3.11710928 L2.64040747,2.45701555 L5.61086587,2.45701555 L5.61086587,2.5303593 C5.6475382,3.92389051 4.54736842,4.95070298 2.8237691,4.95070298 Z" id="Shape"></path>
                <polygon id="Shape" points="7.81120543 4.80401548 7.81120543 0.293374991 12.2485569 0.293374991 12.2485569 0.953468722 8.54465195 0.953468722 8.54465195 2.09029681 11.1117148 2.09029681 11.1117148 2.75039054 8.54465195 2.75039054 8.54465195 4.07057801 12.4319185 4.07057801 12.4319185 4.73067174 7.81120543 4.73067174"></polygon>
                <polygon id="Shape" points="18.5928693 4.80401548 15.2190153 1.10015622 15.2190153 4.80401548 14.4855688 4.80401548 14.4855688 0.293374991 15.4023769 0.293374991 18.7762309 3.99723426 18.7762309 0.293374991 19.5096774 0.293374991 19.5096774 4.76734361 18.5928693 4.76734361"></polygon>
                <polygon id="Shape" points="24.0203735 0.990140596 24.0203735 4.80401548 23.286927 4.80401548 23.286927 0.990140596 21.1966044 0.990140596 21.1966044 0.330046865 26.1473684 0.330046865 26.1473684 0.990140596"></polygon>
                <polygon id="Shape" points="27.8342954 4.80401548 27.8342954 0.293374991 28.5677419 0.293374991 28.5677419 4.76734361 27.8342954 4.76734361"></polygon>
                <polygon id="Shape" points="35.0220713 4.80401548 31.6482173 1.10015622 31.6482173 4.80401548 30.9147708 4.80401548 30.9147708 0.293374991 31.8315789 0.293374991 35.2054329 3.99723426 35.2054329 0.293374991 35.9388795 0.293374991 35.9388795 4.76734361 35.0220713 4.76734361"></polygon>
                <path d="M40.9263158,4.95070298 C40.1561969,4.95070298 39.4594228,4.73067174 38.9826825,4.363953 C38.3959253,3.92389051 38.1025467,3.30046865 38.1025467,2.56703117 C38.1025467,1.8335937 38.3959253,1.24684371 38.9826825,0.806781226 C39.4960951,0.403390613 40.1561969,0.18335937 40.9629881,0.18335937 C41.9531409,0.18335937 42.7232598,0.513406235 43.3466893,1.28351559 L42.6499151,1.61356245 C42.2098472,1.13682809 41.62309,0.880124974 40.8896435,0.880124974 C40.3395586,0.880124974 39.826146,1.02681247 39.4960951,1.32018746 C39.0560272,1.65023433 38.8359932,2.09029681 38.8359932,2.60370305 C38.8359932,3.59384364 39.6427844,4.29060925 40.8896435,4.29060925 C41.8431239,4.29060925 42.5032258,3.88721864 42.7966044,3.11710928 L40.7429542,3.11710928 L40.7429542,2.45701555 L43.7134126,2.45701555 L43.7134126,2.5303593 C43.7500849,3.92389051 42.6132428,4.95070298 40.9263158,4.95070298 Z" id="Shape"></path>
                <path d="M50.6811545,0.8434531 C49.7643463,0.8434531 49.2876061,1.06348434 49.2876061,1.46687496 C49.2876061,1.6869062 49.3976231,1.79692182 49.6543294,1.90693744 C50.1310696,2.09029681 50.8645161,2.01695307 51.744652,2.12696869 C52.8448217,2.27365618 53.3582343,2.64037492 53.3582343,3.41048428 C53.3582343,4.363953 52.5147708,4.91403111 50.9378608,4.91403111 C49.8010187,4.91403111 48.9575552,4.65732799 48.3341256,4.14392175 L48.7375212,3.59384364 C49.4342954,4.03390613 50.1677419,4.25393738 50.9745331,4.25393738 C52.0380306,4.25393738 52.5881154,3.96056238 52.5881154,3.44715615 C52.5881154,2.82373429 51.8546689,2.82373429 50.5344652,2.71371867 C49.1775891,2.60370305 48.4808149,2.42034368 48.4808149,1.5402187 C48.4808149,0.696765605 49.2876061,0.18335937 50.7178268,0.18335937 C51.6713073,0.18335937 52.4780985,0.403390613 53.101528,0.8434531 L52.6614601,1.35685934 C52.0380306,1.02681247 51.3779287,0.8434531 50.6811545,0.8434531 Z" id="Shape"></path>
                <polygon id="Shape" points="55.4852292 4.80401548 55.4852292 0.293374991 56.2186757 0.293374991 56.2186757 4.76734361 55.4852292 4.76734361"></polygon>
                <polygon id="Shape" points="63.9565365 4.80401548 63.9565365 1.13682809 63.9565365 1.13682809 61.6828523 4.07057801 59.4091681 1.13682809 59.4091681 1.13682809 59.4091681 4.80401548 58.6757216 4.80401548 58.6757216 0.293374991 59.5925297 0.293374991 61.7195246 3.00709366 63.8465195 0.293374991 64.7633277 0.293374991 64.7633277 4.76734361 63.9565365 4.76734361"></polygon>
                <path d="M71.6210526,4.32728112 C71.1443124,4.69399986 70.4475382,4.91403111 69.6774194,4.91403111 C68.9073005,4.91403111 68.2105263,4.69399986 67.7337861,4.32728112 C67.1470289,3.88721864 66.8536503,3.26379678 66.8536503,2.5303593 C66.8536503,1.79692182 67.1470289,1.21017184 67.7704584,0.770109352 C68.2471986,0.403390613 68.9439728,0.146687496 69.7140917,0.146687496 C70.4475382,0.146687496 71.1443124,0.366718739 71.657725,0.770109352 C72.2444822,1.24684371 72.5378608,1.8335937 72.5378608,2.5303593 C72.5378608,3.30046865 72.2444822,3.88721864 71.6210526,4.32728112 Z M71.1076401,1.28351559 C70.7409168,1.02681247 70.2641766,0.8434531 69.7140917,0.8434531 C68.4672326,0.8434531 67.6237691,1.57689058 67.6237691,2.5303593 C67.6237691,3.55717177 68.4305603,4.2172655 69.7140917,4.2172655 C70.9609508,4.2172655 71.7677419,3.5204999 71.7677419,2.5303593 C71.7677419,2.01695307 71.547708,1.61356245 71.1076401,1.28351559 Z" id="Shape"></path>
                <polygon id="Shape" points="78.8088285 4.80401548 75.4349745 1.10015622 75.4349745 4.80401548 74.701528 4.80401548 74.701528 0.293374991 75.6183362 0.293374991 78.9921902 3.99723426 78.9921902 0.293374991 79.7256367 0.293374991 79.7256367 4.76734361 78.8088285 4.76734361"></polygon>
            </g>
            <path d="M213.909677,4.76734361 C212.84618,4.76734361 211.966044,3.88721864 211.966044,2.75039054 C211.966044,1.72357807 212.84618,0.806781226 213.94635,0.806781226 C215.083192,0.806781226 215.926655,1.65023433 215.926655,2.78706242 C215.926655,3.88721864 215.04652,4.76734361 213.909677,4.76734361 Z M213.94635,1.13682809 C213.029542,1.13682809 212.296095,1.87026557 212.296095,2.78706242 C212.296095,3.74053114 213.029542,4.47396862 213.94635,4.47396862 C214.89983,4.47396862 215.633277,3.74053114 215.633277,2.78706242 C215.633277,1.87026557 214.936503,1.13682809 213.94635,1.13682809 Z M214.349745,3.88721864 L213.94635,3.00709366 L213.652971,3.00709366 L213.652971,3.88721864 L213.212903,3.88721864 L213.212903,1.72357807 L213.983022,1.72357807 C214.569779,1.72357807 214.89983,1.94360932 214.89983,2.34699993 C214.89983,2.60370305 214.753141,2.78706242 214.42309,2.89707804 L214.89983,3.85054676 L214.349745,3.85054676 L214.349745,3.88721864 Z M214.386418,2.38367181 C214.386418,2.16364056 214.239728,2.09029681 213.94635,2.09029681 L213.652971,2.09029681 L213.652971,2.71371867 L213.94635,2.71371867 C214.239728,2.71371867 214.386418,2.60370305 214.386418,2.38367181 Z" id="Shape"></path>
            <g id="Group" transform="translate(0.000000, 0.366719)">
                <path d="M9.64482173,0.330046865 C10.2315789,0.330046865 10.7816638,0.403390613 11.2950764,0.586749983 C11.808489,0.770109352 12.2118846,1.02681247 12.5419355,1.32018746 C12.8719864,1.65023433 13.1286927,2.05362494 13.3487267,2.49368743 C13.5320883,2.97042179 13.6421053,3.48382802 13.6421053,4.03390613 C13.6421053,5.2074061 13.275382,6.12420295 12.5419355,6.7476248 C11.808489,7.37104666 10.7083192,7.70109352 9.27809847,7.70109352 L2.16366723,7.70109352 L2.16366723,12.2484059 L0.18336163,12.2484059 L0.18336163,0.330046865 L9.64482173,0.330046865 Z M9.3147708,5.94084358 C10.0848896,5.94084358 10.6349745,5.79415608 11.0383701,5.46410922 C11.4050934,5.13406235 11.6251273,4.69399986 11.6251273,4.10724988 C11.6251273,2.78706242 10.8183362,2.12696869 9.20475382,2.12696869 L2.16366723,2.12696869 L2.16366723,5.94084358 L9.3147708,5.94084358 Z" id="Shape"></path>
                <path d="M26.3674024,12.2850778 L23.1402377,7.70109352 L17.0893039,7.70109352 L17.0893039,12.2484059 L15.1089983,12.2484059 L15.1089983,0.330046865 L24.5337861,0.330046865 C25.7806452,0.330046865 26.770798,0.660093731 27.5042445,1.32018746 C28.2010187,1.98028119 28.5677419,2.89707804 28.5677419,4.07057801 C28.5677419,4.58398424 28.4943973,5.0607186 28.347708,5.46410922 C28.2010187,5.86749983 27.9809847,6.23421857 27.6876061,6.52759356 C27.3942275,6.82096855 27.0641766,7.04099979 26.6974533,7.22435916 C26.3307301,7.40771853 25.8906621,7.51773416 25.4505942,7.5910779 L28.6410866,12.2484059 L26.3674024,12.2484059 L26.3674024,12.2850778 Z M24.2404075,5.94084358 C24.973854,5.94084358 25.5606112,5.79415608 25.9640068,5.46410922 C26.3674024,5.13406235 26.550764,4.69399986 26.550764,4.10724988 C26.550764,2.78706242 25.7439728,2.12696869 24.0937182,2.12696869 L17.1259762,2.12696869 L17.1259762,5.94084358 L24.2404075,5.94084358 Z" id="Shape"></path>
                <polygon id="Shape" points="30.8047538 12.2850778 30.8047538 0.330046865 42.8699491 0.330046865 42.8699491 2.12696869 32.7850594 2.12696869 32.7850594 5.2074061 39.7894737 5.2074061 39.7894737 6.96765605 32.7850594 6.96765605 32.7850594 10.4881559 43.310017 10.4881559 43.310017 12.2850778"></polygon>
                <polygon id="Shape" points="59.5191851 12.2850778 59.5191851 2.49368743 59.4825127 2.49368743 53.2848896 10.2681247 47.1239389 2.49368743 47.0872666 2.49368743 47.0872666 12.2484059 45.106961 12.2484059 45.106961 0.330046865 47.5640068 0.330046865 53.321562 7.55440603 59.0424448 0.330046865 61.4994907 0.330046865 61.4994907 12.2850778"></polygon>
                <polygon id="Shape" points="64.4699491 12.2850778 64.4699491 0.330046865 66.4502547 0.330046865 66.4502547 12.2850778"></polygon>
                <path d="M82.8794567,8.39785913 C82.8794567,9.02128099 82.7327674,9.57135909 82.4027165,10.0847653 C82.0726655,10.5981716 81.6325976,11.0382341 81.0458404,11.4049528 C80.4590832,11.7716715 79.762309,12.0650465 78.9188455,12.2850778 C78.075382,12.505109 77.1585739,12.6151246 76.0950764,12.6151246 C75.0315789,12.6151246 74.1147708,12.505109 73.2713073,12.2850778 C72.4278438,12.0650465 71.7310696,11.7716715 71.1443124,11.4049528 C70.5575552,11.0382341 70.1174873,10.5981716 69.7874363,10.0847653 C69.4573854,9.57135909 69.3106961,9.02128099 69.3106961,8.39785913 L69.3106961,0.330046865 L71.2910017,0.330046865 L71.2910017,7.92112477 C71.2910017,8.87459349 71.6943973,9.57135909 72.5011885,10.0847653 C73.3079796,10.5981716 74.5181664,10.8182028 76.0950764,10.8182028 C77.6719864,10.8182028 78.8455008,10.5614997 79.652292,10.0847653 C80.4590832,9.57135909 80.8624788,8.87459349 80.8624788,7.92112477 L80.8624788,0.330046865 L82.8427844,0.330046865 L82.8427844,8.39785913 L82.8794567,8.39785913 Z" id="Shape"></path>
                <polygon id="Shape" points="100.225467 12.2850778 100.225467 2.49368743 100.188795 2.49368743 93.9911715 10.2681247 87.8302207 2.49368743 87.7935484 2.49368743 87.7935484 12.2484059 85.8132428 12.2484059 85.8132428 0.330046865 88.2702886 0.330046865 94.0278438 7.55440603 99.7487267 0.330046865 102.205772 0.330046865 102.205772 12.2850778"></polygon>
            </g>
            <g id="Group" transform="translate(109.283531, 0.000000)">
                <path d="M15.4757216,6.63760918 C15.4757216,8.5812185 14.6689304,10.194781 13.055348,11.4049528 C12.3952462,11.8816872 11.6251273,12.2850778 10.7083192,12.5784528 C9.82818336,12.8718277 8.83803056,12.9818434 7.81120543,12.9818434 C6.78438031,12.9818434 5.7942275,12.8351559 4.87741935,12.5417809 C3.96061121,12.2484059 3.19049236,11.8816872 2.53039049,11.3682809 C0.916808149,10.1581091 0.110016978,8.5812185 0.110016978,6.63760918 C0.110016978,4.73067174 0.916808149,3.15378116 2.56706282,1.90693744 C3.22716469,1.39353121 4.03395586,0.990140596 4.91409168,0.733437479 C5.7942275,0.440062487 6.78438031,0.293374991 7.81120543,0.293374991 C8.83803056,0.293374991 9.79151104,0.440062487 10.7083192,0.733437479 C11.6251273,1.02681247 12.3952462,1.43020308 13.055348,1.90693744 C14.6689304,3.15378116 15.4757216,4.73067174 15.4757216,6.63760918 Z M13.4220713,6.63760918 C13.4220713,5.24407797 12.8353141,4.10724988 11.6251273,3.22712491 C11.1483871,2.86040617 10.5616299,2.60370305 9.93820034,2.42034368 C9.27809847,2.23698431 8.58132428,2.12696869 7.81120543,2.12696869 C6.96774194,2.12696869 6.19762309,2.23698431 5.53752122,2.45701555 C4.84074703,2.6770468 4.25398981,3.00709366 3.77724958,3.41048428 C3.30050934,3.81387489 2.89711375,4.29060925 2.64040747,4.84068736 C2.34702886,5.39076547 2.23701188,6.01418732 2.23701188,6.63760918 C2.23701188,7.29770291 2.38370119,7.92112477 2.64040747,8.47120288 C2.89711375,9.02128099 3.26383701,9.49801535 3.77724958,9.90140596 C4.25398981,10.3047966 4.84074703,10.5981716 5.53752122,10.8182028 C6.23429542,11.0382341 7.00441426,11.1482497 7.84787776,11.1482497 C8.69134126,11.1482497 9.4614601,11.0382341 10.1582343,10.8182028 C10.8550085,10.5981716 11.4417657,10.3047966 11.9185059,9.90140596 C12.3952462,9.49801535 12.7619694,9.02128099 13.055348,8.47120288 C13.275382,7.92112477 13.4220713,7.33437479 13.4220713,6.63760918 Z" id="Shape"></path>
                <path d="M31.1714771,8.76457787 C31.1714771,9.38799973 31.0247878,9.93807783 30.6947368,10.4514841 C30.3646859,10.9648903 29.924618,11.4049528 29.3378608,11.7716715 C28.7511036,12.1383903 28.0543294,12.4317653 27.2108659,12.6517965 C26.3674024,12.8718277 25.4505942,12.9818434 24.3870968,12.9818434 C23.3235993,12.9818434 22.4067912,12.8718277 21.5633277,12.6517965 C20.7198642,12.4317653 20.02309,12.1383903 19.4363328,11.7716715 C18.8495756,11.4049528 18.4095076,10.9648903 18.0794567,10.4514841 C17.7494058,9.93807783 17.6027165,9.38799973 17.6027165,8.76457787 L17.6027165,0.696765605 L19.5830221,0.696765605 L19.5830221,8.28784351 C19.5830221,9.24131223 19.9864177,9.93807783 20.7932088,10.4514841 C21.6,10.9648903 22.8101868,11.1849215 24.3870968,11.1849215 C25.9640068,11.1849215 27.1375212,10.9282184 27.9443124,10.4514841 C28.7511036,9.93807783 29.1544992,9.24131223 29.1544992,8.28784351 L29.1544992,0.696765605 L31.1348048,0.696765605 L31.1348048,8.76457787 L31.1714771,8.76457787 Z" id="Shape"></path>
                <polygon id="Shape" points="40.2662139 2.45701555 40.2662139 12.6151246 38.2859083 12.6151246 38.2859083 2.45701555 32.5650255 2.45701555 32.5650255 0.696765605 45.9504244 0.696765605 45.9504244 2.49368743 40.2662139 2.49368743"></polygon>
                <polygon id="Shape" points="47.4173175 12.6517965 47.4173175 0.696765605 49.3976231 0.696765605 49.3976231 10.8548747 58.6390492 10.8548747 58.6390492 12.6517965"></polygon>
                <polygon id="Shape" points="60.0692699 12.6517965 60.0692699 0.696765605 72.1344652 0.696765605 72.1344652 2.49368743 62.0495756 2.49368743 62.0495756 5.57412484 69.0539898 5.57412484 69.0539898 7.33437479 62.0495756 7.33437479 62.0495756 10.8548747 72.5745331 10.8548747 72.5745331 12.6517965"></polygon>
                <polygon id="Shape" points="80.9724958 2.45701555 80.9724958 12.6151246 78.9921902 12.6151246 78.9921902 2.45701555 73.2713073 2.45701555 73.2713073 0.696765605 86.6567063 0.696765605 86.6567063 2.49368743 80.9724958 2.49368743"></polygon>
                <path d="M98.7585739,3.48382802 C97.878438,3.00709366 96.9616299,2.6770468 96.0814941,2.45701555 C95.2013582,2.23698431 94.2845501,2.12696869 93.3310696,2.12696869 C92.0842105,2.12696869 91.1307301,2.27365618 90.5073005,2.56703117 C89.883871,2.86040617 89.55382,3.26379678 89.55382,3.74053114 C89.55382,4.25393738 89.883871,4.65732799 90.5806452,4.87735923 C90.9106961,4.98737485 91.2774194,5.09739048 91.6808149,5.13406235 C92.0842105,5.17073422 92.5242784,5.2074061 93.0010187,5.24407797 C93.4777589,5.28074985 93.9911715,5.31742172 94.5412564,5.31742172 C95.0913413,5.35409359 95.6780985,5.39076547 96.2648557,5.46410922 C97.7684211,5.64746858 98.8685908,6.01418732 99.565365,6.56426543 C100.298812,7.11434354 100.628862,7.88445289 100.628862,8.87459349 C100.628862,10.1581091 100.078778,11.1115778 98.9786078,11.8083434 C97.878438,12.505109 96.2648557,12.8351559 94.1011885,12.8351559 C92.5609508,12.8351559 91.2040747,12.6884684 90.0672326,12.3584215 C88.8937182,12.0283746 87.866893,11.5149684 87.0234295,10.8182028 L88.1235993,9.38799973 C89.0770798,9.97474971 90.0672326,10.4148122 91.0573854,10.7081872 C92.0475382,11.0015622 93.0743633,11.1115778 94.1745331,11.1115778 C95.6047538,11.1115778 96.7049236,10.9282184 97.4383701,10.5248278 C98.1718166,10.1581091 98.5385399,9.64470284 98.5385399,8.98460911 C98.5385399,8.54454663 98.4285229,8.21449976 98.1718166,7.99446852 C97.9151104,7.77443727 97.5483871,7.5910779 97.1083192,7.48106228 C96.6315789,7.37104666 96.0448217,7.26103104 95.3847199,7.22435916 C94.6879457,7.18768729 93.9178268,7.11434354 93.037691,7.07767167 C92.1208829,7.00432792 91.3140917,6.93098417 90.6173175,6.82096855 C89.9205433,6.71095293 89.3704584,6.52759356 88.8937182,6.30756232 C88.4169779,6.08753107 88.086927,5.75748421 87.866893,5.39076547 C87.6468591,5.02404673 87.5368421,4.54731237 87.5368421,3.96056238 C87.5368421,2.82373429 88.0502547,1.94360932 89.0770798,1.32018746 C90.1039049,0.660093731 91.6074703,0.330046865 93.5511036,0.330046865 C96.1181664,0.330046865 98.2818336,0.916796848 100.005433,2.09029681 L98.7585739,3.48382802 Z" id="Shape"></path>
            </g>
        </g>
    </g>
</svg>