<?xml version="1.0" encoding="UTF-8"?>
<svg width="184px" height="34px" viewBox="0 0 184 34" version="1.1" xmlns="http://www.w3.org/2000/svg" xmlns:xlink="http://www.w3.org/1999/xlink">
    <!-- Generator: Sketch 48.2 (47327) - http://www.bohemiancoding.com/sketch -->
    <title>premiumoutletswhite</title>
    <desc>Created with Sketch.</desc>
    <defs></defs>
    <g id="Artboard-3" stroke="none" stroke-width="1" fill="none" fill-rule="evenodd" transform="translate(-96.000000, -208.000000)">
        <g id="premiumoutletswhite" transform="translate(96.000000, 208.000000)" fill="#FFFFFF" fill-rule="nonzero">
            <g id="Corporate-Logotype" transform="translate(0.000000, 14.000000)">
                <g id="Group" transform="translate(55.000000, 15.000000)">
                    <path d="M2.40183486,4.82142857 C1.74678899,4.82142857 1.15412844,4.60714286 0.748623853,4.25 C0.249541284,3.82142857 -2.84217094e-14,3.21428571 -2.84217094e-14,2.5 C-2.84217094e-14,1.78571429 0.249541284,1.21428571 0.748623853,0.785714286 C1.1853211,0.392857143 1.77798165,0.178571429 2.43302752,0.178571429 C3.27522936,0.178571429 3.93027523,0.5 4.46055046,1.25 L3.86788991,1.57142857 C3.49357798,1.10714286 2.99449541,0.857142857 2.3706422,0.857142857 C1.90275229,0.857142857 1.46605505,1 1.1853211,1.28571429 C0.811009174,1.60714286 0.623853211,2.03571429 0.623853211,2.53571429 C0.623853211,3.5 1.31009174,4.17857143 2.3706422,4.17857143 C3.18165138,4.17857143 3.74311927,3.78571429 3.99266055,3.03571429 L2.24587156,3.03571429 L2.24587156,2.39285714 L4.77247706,2.39285714 L4.77247706,2.46428571 C4.80366972,3.82142857 3.86788991,4.82142857 2.40183486,4.82142857 Z" id="Shape"></path>
                    <polygon id="Shape" points="6.6440367 4.67857143 6.6440367 0.285714286 10.4183486 0.285714286 10.4183486 0.928571429 7.26788991 0.928571429 7.26788991 2.03571429 9.45137615 2.03571429 9.45137615 2.67857143 7.26788991 2.67857143 7.26788991 3.96428571 10.5743119 3.96428571 10.5743119 4.60714286 6.6440367 4.60714286"></polygon>
                    <polygon id="Shape" points="15.8146789 4.67857143 12.9449541 1.07142857 12.9449541 4.67857143 12.3211009 4.67857143 12.3211009 0.285714286 13.1009174 0.285714286 15.9706422 3.89285714 15.9706422 0.285714286 16.5944954 0.285714286 16.5944954 4.64285714 15.8146789 4.64285714"></polygon>
                    <polygon id="Shape" points="20.4311927 0.964285714 20.4311927 4.67857143 19.8073394 4.67857143 19.8073394 0.964285714 18.0293578 0.964285714 18.0293578 0.321428571 22.240367 0.321428571 22.240367 0.964285714"></polygon>
                    <polygon id="Shape" points="23.6752294 4.67857143 23.6752294 0.285714286 24.2990826 0.285714286 24.2990826 4.64285714 23.6752294 4.64285714"></polygon>
                    <polygon id="Shape" points="29.7889908 4.67857143 26.9192661 1.07142857 26.9192661 4.67857143 26.2954128 4.67857143 26.2954128 0.285714286 27.0752294 0.285714286 29.9449541 3.89285714 29.9449541 0.285714286 30.5688073 0.285714286 30.5688073 4.64285714 29.7889908 4.64285714"></polygon>
                    <path d="M34.8110092,4.82142857 C34.1559633,4.82142857 33.5633028,4.60714286 33.1577982,4.25 C32.6587156,3.82142857 32.4091743,3.21428571 32.4091743,2.5 C32.4091743,1.78571429 32.6587156,1.21428571 33.1577982,0.785714286 C33.5944954,0.392857143 34.1559633,0.178571429 34.8422018,0.178571429 C35.6844037,0.178571429 36.3394495,0.5 36.8697248,1.25 L36.2770642,1.57142857 C35.9027523,1.10714286 35.4036697,0.857142857 34.7798165,0.857142857 C34.3119266,0.857142857 33.8752294,1 33.5944954,1.28571429 C33.2201835,1.60714286 33.0330275,2.03571429 33.0330275,2.53571429 C33.0330275,3.5 33.7192661,4.17857143 34.7798165,4.17857143 C35.5908257,4.17857143 36.1522936,3.78571429 36.4018349,3.03571429 L34.6550459,3.03571429 L34.6550459,2.39285714 L37.1816514,2.39285714 L37.1816514,2.46428571 C37.212844,3.82142857 36.2458716,4.82142857 34.8110092,4.82142857 Z" id="Shape"></path>
                    <path d="M43.1082569,0.821428571 C42.3284404,0.821428571 41.9229358,1.03571429 41.9229358,1.42857143 C41.9229358,1.64285714 42.0165138,1.75 42.2348624,1.85714286 C42.640367,2.03571429 43.2642202,1.96428571 44.012844,2.07142857 C44.9486239,2.21428571 45.3853211,2.57142857 45.3853211,3.32142857 C45.3853211,4.25 44.6678899,4.78571429 43.3266055,4.78571429 C42.359633,4.78571429 41.6422018,4.53571429 41.1119266,4.03571429 L41.4550459,3.5 C42.0477064,3.92857143 42.6715596,4.14285714 43.3577982,4.14285714 C44.2623853,4.14285714 44.7302752,3.85714286 44.7302752,3.35714286 C44.7302752,2.75 44.106422,2.75 42.9834862,2.64285714 C41.8293578,2.53571429 41.2366972,2.35714286 41.2366972,1.5 C41.2366972,0.678571429 41.9229358,0.178571429 43.1394495,0.178571429 C43.9504587,0.178571429 44.6366972,0.392857143 45.1669725,0.821428571 L44.7926606,1.32142857 C44.2623853,1 43.7009174,0.821428571 43.1082569,0.821428571 Z" id="Shape"></path>
                    <polygon id="Shape" points="47.1944954 4.67857143 47.1944954 0.285714286 47.8183486 0.285714286 47.8183486 4.64285714 47.1944954 4.64285714"></polygon>
                    <polygon id="Shape" points="54.4 4.67857143 54.4 1.10714286 54.4 1.10714286 52.466055 3.96428571 50.5321101 1.10714286 50.5321101 1.10714286 50.5321101 4.67857143 49.9082569 4.67857143 49.9082569 0.285714286 50.6880734 0.285714286 52.4972477 2.92857143 54.306422 0.285714286 55.0862385 0.285714286 55.0862385 4.64285714 54.4 4.64285714"></polygon>
                    <path d="M60.9192661,4.21428571 C60.5137615,4.57142857 59.9211009,4.78571429 59.266055,4.78571429 C58.6110092,4.78571429 58.0183486,4.57142857 57.612844,4.21428571 C57.1137615,3.78571429 56.8642202,3.17857143 56.8642202,2.46428571 C56.8642202,1.75 57.1137615,1.17857143 57.6440367,0.75 C58.0495413,0.392857143 58.6422018,0.142857143 59.2972477,0.142857143 C59.9211009,0.142857143 60.5137615,0.357142857 60.9504587,0.75 C61.4495413,1.21428571 61.6990826,1.78571429 61.6990826,2.46428571 C61.6990826,3.21428571 61.4495413,3.78571429 60.9192661,4.21428571 Z M60.4825688,1.25 C60.1706422,1 59.7651376,0.821428571 59.2972477,0.821428571 C58.2366972,0.821428571 57.5192661,1.53571429 57.5192661,2.46428571 C57.5192661,3.46428571 58.2055046,4.10714286 59.2972477,4.10714286 C60.3577982,4.10714286 61.0440367,3.42857143 61.0440367,2.46428571 C61.0440367,1.96428571 60.8568807,1.57142857 60.4825688,1.25 Z" id="Shape"></path>
                    <polygon id="Shape" points="67.0330275 4.67857143 64.1633028 1.07142857 64.1633028 4.67857143 63.5394495 4.67857143 63.5394495 0.285714286 64.3192661 0.285714286 67.1889908 3.89285714 67.1889908 0.285714286 67.812844 0.285714286 67.812844 4.64285714 67.0330275 4.64285714"></polygon>
                </g>
                <path d="M181.962963,5 C180.888889,5 180,4.11111111 180,2.96296296 C180,1.92592593 180.888889,1 182,1 C183.148148,1 184,1.85185185 184,3 C184,4.11111111 183.111111,5 181.962963,5 Z M182,1.33333333 C181.074074,1.33333333 180.333333,2.07407407 180.333333,3 C180.333333,3.96296296 181.074074,4.7037037 182,4.7037037 C182.962963,4.7037037 183.703704,3.96296296 183.703704,3 C183.703704,2.07407407 183,1.33333333 182,1.33333333 Z M182.407407,4.11111111 L182,3.22222222 L181.703704,3.22222222 L181.703704,4.11111111 L181.259259,4.11111111 L181.259259,1.92592593 L182.037037,1.92592593 C182.62963,1.92592593 182.962963,2.14814815 182.962963,2.55555556 C182.962963,2.81481481 182.814815,3 182.481481,3.11111111 L182.962963,4.07407407 L182.407407,4.07407407 L182.407407,4.11111111 Z M182.444444,2.59259259 C182.444444,2.37037037 182.296296,2.2962963 182,2.2962963 L181.703704,2.2962963 L181.703704,2.92592593 L182,2.92592593 C182.296296,2.92592593 182.444444,2.81481481 182.444444,2.59259259 Z" id="Shape"></path>
                <g id="Group">
                    <path d="M8.20107527,0.257142857 C8.7,0.257142857 9.16774194,0.314285714 9.60430108,0.457142857 C10.0408602,0.6 10.383871,0.8 10.6645161,1.02857143 C10.9451613,1.28571429 11.1634409,1.6 11.3505376,1.94285714 C11.5064516,2.31428571 11.6,2.71428571 11.6,3.14285714 C11.6,4.05714286 11.288172,4.77142857 10.6645161,5.25714286 C10.0408602,5.74285714 9.10537634,6 7.88924731,6 L1.83978495,6 L1.83978495,9.54285714 L0.155913978,9.54285714 L0.155913978,0.257142857 L8.20107527,0.257142857 Z M7.92043011,4.62857143 C8.57526882,4.62857143 9.04301075,4.51428571 9.38602151,4.25714286 C9.69784946,4 9.88494624,3.65714286 9.88494624,3.2 C9.88494624,2.17142857 9.19892473,1.65714286 7.82688172,1.65714286 L1.83978495,1.65714286 L1.83978495,4.62857143 L7.92043011,4.62857143 Z" id="Shape"></path>
                    <path d="M22.4204301,9.57142857 L19.6763441,6 L14.5311828,6 L14.5311828,9.54285714 L12.8473118,9.54285714 L12.8473118,0.257142857 L20.8612903,0.257142857 C21.9215054,0.257142857 22.7634409,0.514285714 23.3870968,1.02857143 C23.9795699,1.54285714 24.2913978,2.25714286 24.2913978,3.17142857 C24.2913978,3.57142857 24.2290323,3.94285714 24.1043011,4.25714286 C23.9795699,4.57142857 23.7924731,4.85714286 23.5430108,5.08571429 C23.2935484,5.31428571 23.0129032,5.48571429 22.7010753,5.62857143 C22.3892473,5.77142857 22.0150538,5.85714286 21.6408602,5.91428571 L24.3537634,9.54285714 L22.4204301,9.54285714 L22.4204301,9.57142857 Z M20.611828,4.62857143 C21.2354839,4.62857143 21.7344086,4.51428571 22.0774194,4.25714286 C22.4204301,4 22.5763441,3.65714286 22.5763441,3.2 C22.5763441,2.17142857 21.8903226,1.65714286 20.4870968,1.65714286 L14.5623656,1.65714286 L14.5623656,4.62857143 L20.611828,4.62857143 Z" id="Shape"></path>
                    <polygon id="Shape" points="26.1935484 9.57142857 26.1935484 0.257142857 36.4526882 0.257142857 36.4526882 1.65714286 27.8774194 1.65714286 27.8774194 4.05714286 33.8333333 4.05714286 33.8333333 5.42857143 27.8774194 5.42857143 27.8774194 8.17142857 36.8268817 8.17142857 36.8268817 9.57142857"></polygon>
                    <polygon id="Shape" points="50.6096774 9.57142857 50.6096774 1.94285714 50.5784946 1.94285714 45.3086022 8 40.0698925 1.94285714 40.0387097 1.94285714 40.0387097 9.54285714 38.3548387 9.54285714 38.3548387 0.257142857 40.444086 0.257142857 45.3397849 5.88571429 50.2043011 0.257142857 52.2935484 0.257142857 52.2935484 9.57142857"></polygon>
                    <polygon id="Shape" points="54.8193548 9.57142857 54.8193548 0.257142857 56.5032258 0.257142857 56.5032258 9.57142857"></polygon>
                    <path d="M70.4731183,6.54285714 C70.4731183,7.02857143 70.3483871,7.45714286 70.0677419,7.85714286 C69.7870968,8.25714286 69.4129032,8.6 68.9139785,8.88571429 C68.4150538,9.17142857 67.8225806,9.4 67.1053763,9.57142857 C66.388172,9.74285714 65.6086022,9.82857143 64.7043011,9.82857143 C63.8,9.82857143 63.0204301,9.74285714 62.3032258,9.57142857 C61.5860215,9.4 60.9935484,9.17142857 60.4946237,8.88571429 C59.9956989,8.6 59.6215054,8.25714286 59.3408602,7.85714286 C59.0602151,7.45714286 58.9354839,7.02857143 58.9354839,6.54285714 L58.9354839,0.257142857 L60.6193548,0.257142857 L60.6193548,6.17142857 C60.6193548,6.91428571 60.9623656,7.45714286 61.6483871,7.85714286 C62.3344086,8.25714286 63.3634409,8.42857143 64.7043011,8.42857143 C66.0451613,8.42857143 67.0430108,8.22857143 67.7290323,7.85714286 C68.4150538,7.45714286 68.7580645,6.91428571 68.7580645,6.17142857 L68.7580645,0.257142857 L70.4419355,0.257142857 L70.4419355,6.54285714 L70.4731183,6.54285714 Z" id="Shape"></path>
                    <polygon id="Shape" points="85.2225806 9.57142857 85.2225806 1.94285714 85.1913978 1.94285714 79.9215054 8 74.6827957 1.94285714 74.6516129 1.94285714 74.6516129 9.54285714 72.9677419 9.54285714 72.9677419 0.257142857 75.0569892 0.257142857 79.9526882 5.88571429 84.8172043 0.257142857 86.9064516 0.257142857 86.9064516 9.57142857"></polygon>
                </g>
                <g id="Group" transform="translate(93.000000, 0.000000)">
                    <path d="M13.1970909,5.53055556 C13.1970909,7.15 12.5090909,8.49444444 11.1330909,9.50277778 C10.5701818,9.9 9.91345455,10.2361111 9.13163636,10.4805556 C8.38109091,10.725 7.53672727,10.8166667 6.66109091,10.8166667 C5.78545455,10.8166667 4.94109091,10.6944444 4.15927273,10.45 C3.37745455,10.2055556 2.72072727,9.9 2.15781818,9.47222222 C0.781818182,8.46388889 0.0938181818,7.15 0.0938181818,5.53055556 C0.0938181818,3.94166667 0.781818182,2.62777778 2.18909091,1.58888889 C2.752,1.16111111 3.44,0.825 4.19054545,0.611111111 C4.94109091,0.366666667 5.78545455,0.244444444 6.66109091,0.244444444 C7.53672727,0.244444444 8.34981818,0.366666667 9.13163636,0.611111111 C9.91345455,0.855555556 10.5701818,1.19166667 11.1330909,1.58888889 C12.5090909,2.62777778 13.1970909,3.94166667 13.1970909,5.53055556 Z M11.4458182,5.53055556 C11.4458182,4.36944444 10.9454545,3.42222222 9.91345455,2.68888889 C9.50690909,2.38333333 9.00654545,2.16944444 8.47490909,2.01666667 C7.912,1.86388889 7.31781818,1.77222222 6.66109091,1.77222222 C5.94181818,1.77222222 5.28509091,1.86388889 4.72218182,2.04722222 C4.128,2.23055556 3.62763636,2.50555556 3.22109091,2.84166667 C2.81454545,3.17777778 2.47054545,3.575 2.25163636,4.03333333 C2.00145455,4.49166667 1.90763636,5.01111111 1.90763636,5.53055556 C1.90763636,6.08055556 2.03272727,6.6 2.25163636,7.05833333 C2.47054545,7.51666667 2.78327273,7.91388889 3.22109091,8.25 C3.62763636,8.58611111 4.128,8.83055556 4.72218182,9.01388889 C5.31636364,9.19722222 5.97309091,9.28888889 6.69236364,9.28888889 C7.41163636,9.28888889 8.06836364,9.19722222 8.66254545,9.01388889 C9.25672727,8.83055556 9.75709091,8.58611111 10.1636364,8.25 C10.5701818,7.91388889 10.8829091,7.51666667 11.1330909,7.05833333 C11.3207273,6.6 11.4458182,6.11111111 11.4458182,5.53055556 Z" id="Shape"></path>
                    <path d="M26.5818182,7.30277778 C26.5818182,7.82222222 26.4567273,8.28055556 26.1752727,8.70833333 C25.8938182,9.13611111 25.5185455,9.50277778 25.0181818,9.80833333 C24.5178182,10.1138889 23.9236364,10.3583333 23.2043636,10.5416667 C22.4850909,10.725 21.7032727,10.8166667 20.7963636,10.8166667 C19.8894545,10.8166667 19.1076364,10.725 18.3883636,10.5416667 C17.6690909,10.3583333 17.0749091,10.1138889 16.5745455,9.80833333 C16.0741818,9.50277778 15.6989091,9.13611111 15.4174545,8.70833333 C15.136,8.28055556 15.0109091,7.82222222 15.0109091,7.30277778 L15.0109091,0.580555556 L16.6996364,0.580555556 L16.6996364,6.90555556 C16.6996364,7.7 17.0436364,8.28055556 17.7316364,8.70833333 C18.4196364,9.13611111 19.4516364,9.31944444 20.7963636,9.31944444 C22.1410909,9.31944444 23.1418182,9.10555556 23.8298182,8.70833333 C24.5178182,8.28055556 24.8618182,7.7 24.8618182,6.90555556 L24.8618182,0.580555556 L26.5505455,0.580555556 L26.5505455,7.30277778 L26.5818182,7.30277778 Z" id="Shape"></path>
                    <polygon id="Shape" points="34.3374545 2.04722222 34.3374545 10.5111111 32.6487273 10.5111111 32.6487273 2.04722222 27.7701818 2.04722222 27.7701818 0.580555556 39.1847273 0.580555556 39.1847273 2.07777778 34.3374545 2.07777778"></polygon>
                    <polygon id="Shape" points="40.4356364 10.5416667 40.4356364 0.580555556 42.1243636 0.580555556 42.1243636 9.04444444 50.0050909 9.04444444 50.0050909 10.5416667"></polygon>
                    <polygon id="Shape" points="51.2247273 10.5416667 51.2247273 0.580555556 61.5134545 0.580555556 61.5134545 2.07777778 52.9134545 2.07777778 52.9134545 4.64444444 58.8865455 4.64444444 58.8865455 6.11111111 52.9134545 6.11111111 52.9134545 9.04444444 61.8887273 9.04444444 61.8887273 10.5416667"></polygon>
                    <polygon id="Shape" points="69.0501818 2.04722222 69.0501818 10.5111111 67.3614545 10.5111111 67.3614545 2.04722222 62.4829091 2.04722222 62.4829091 0.580555556 73.8974545 0.580555556 73.8974545 2.07777778 69.0501818 2.07777778"></polygon>
                    <path d="M84.2174545,2.90277778 C83.4669091,2.50555556 82.6850909,2.23055556 81.9345455,2.04722222 C81.184,1.86388889 80.4021818,1.77222222 79.5890909,1.77222222 C78.5258182,1.77222222 77.7127273,1.89444444 77.1810909,2.13888889 C76.6494545,2.38333333 76.368,2.71944444 76.368,3.11666667 C76.368,3.54444444 76.6494545,3.88055556 77.2436364,4.06388889 C77.5250909,4.15555556 77.8378182,4.24722222 78.1818182,4.27777778 C78.5258182,4.30833333 78.9010909,4.33888889 79.3076364,4.36944444 C79.7141818,4.4 80.152,4.43055556 80.6210909,4.43055556 C81.0901818,4.46111111 81.5905455,4.49166667 82.0909091,4.55277778 C83.3730909,4.70555556 84.3112727,5.01111111 84.9054545,5.46944444 C85.5309091,5.92777778 85.8123636,6.56944444 85.8123636,7.39444444 C85.8123636,8.46388889 85.3432727,9.25833333 84.4050909,9.83888889 C83.4669091,10.4194444 82.0909091,10.6944444 80.2458182,10.6944444 C78.9323636,10.6944444 77.7752727,10.5722222 76.8058182,10.2972222 C75.8050909,10.0222222 74.9294545,9.59444444 74.2101818,9.01388889 L75.1483636,7.82222222 C75.9614545,8.31111111 76.8058182,8.67777778 77.6501818,8.92222222 C78.4945455,9.16666667 79.3701818,9.25833333 80.3083636,9.25833333 C81.528,9.25833333 82.4661818,9.10555556 83.0916364,8.76944444 C83.7170909,8.46388889 84.0298182,8.03611111 84.0298182,7.48611111 C84.0298182,7.11944444 83.936,6.84444444 83.7170909,6.66111111 C83.4981818,6.47777778 83.1854545,6.325 82.8101818,6.23333333 C82.4036364,6.14166667 81.9032727,6.05 81.3403636,6.01944444 C80.7461818,5.98888889 80.0894545,5.92777778 79.3389091,5.89722222 C78.5570909,5.83611111 77.8690909,5.775 77.2749091,5.68333333 C76.6807273,5.59166667 76.2116364,5.43888889 75.8050909,5.25555556 C75.3985455,5.07222222 75.1170909,4.79722222 74.9294545,4.49166667 C74.7418182,4.18611111 74.648,3.78888889 74.648,3.3 C74.648,2.35277778 75.0858182,1.61944444 75.9614545,1.1 C76.8370909,0.55 78.1192727,0.275 79.7767273,0.275 C81.9658182,0.275 83.8109091,0.763888889 85.2807273,1.74166667 L84.2174545,2.90277778 Z" id="Shape"></path>
                </g>
            </g>
            <polygon id="Shape" points="97.9435088 0.0556247334 97.9161975 0.0278123667 86.7185741 8.1768358 82.56726 5.06185074 86.7458853 1.9190533 89.8866822 4.28310447 91.1976234 3.30967164 86.7185741 0 80 5.06185074 86.6912628 10.1237015 97.8888862 1.97467803 102.067512 5.0896631 97.861575 8.31589764 94.7754007 5.95184647 93.4644594 6.89746694 97.861575 10.2627633 104.634772 5.06185074"></polygon>
        </g>
    </g>
</svg>