<svg xmlns="http://www.w3.org/2000/svg" width="48" height="34" viewBox="0 0 48 34">
  <metadata><?xpacket begin="﻿" id="W5M0MpCehiHzreSzNTczkc9d"?>
<x:xmpmeta xmlns:x="adobe:ns:meta/" x:xmptk="Adobe XMP Core 5.6-c138 79.159824, 2016/09/14-01:09:01        ">
   <rdf:RDF xmlns:rdf="http://www.w3.org/1999/02/22-rdf-syntax-ns#">
      <rdf:Description rdf:about=""/>
   </rdf:RDF>
</x:xmpmeta>
                                                                                                    
                                                                                                    
                                                                                                    
                                                                                                    
                                                                                                    
                                                                                                    
                                                                                                    
                                                                                                    
                                                                                                    
                                                                                                    
                                                                                                    
                                                                                                    
                                                                                                    
                                                                                                    
                                                                                                    
                                                                                                    
                                                                                                    
                                                                                                    
                                                                                                    
                                                                                                    
                           
<?xpacket end="w"?></metadata>
<defs>
    <style>
      .cls-1 {
        fill: #fff;
        fill-rule: evenodd;
      }
    </style>
  </defs>
  <path id="Forma_1" data-name="Forma 1" class="cls-1" d="M99.19,46.066a2.138,2.138,0,0,1,.245-0.091l20.407-9.133V33.875c-3.881-.473-5.8-3.065-5.8-6.4,0-3.691,2.566-6.476,6.022-6.476a6.726,6.726,0,0,1,6.675,6.615,1.12,1.12,0,0,1-1.114,1.118,1.1,1.1,0,0,1-.5-0.133,1.113,1.113,0,0,1-.611-0.985,4.551,4.551,0,0,0-4.487-4.379,3.928,3.928,0,0,0-3.855,4.24,4.293,4.293,0,0,0,4.559,4.24,1.068,1.068,0,0,1,1.051,1.118v4.379c0,0.022.043,0.039,0.041,0.061l19.564,9.362c2.886,1.052,3.873,3.447,3.558,5.274A3.764,3.764,0,0,1,141.008,55H102.15a4.852,4.852,0,0,1-4.941-3.385A4.981,4.981,0,0,1,99.19,46.066ZM99.323,51.1a2.754,2.754,0,0,0,2.826,1.932h38.859a1.657,1.657,0,0,0,1.776-1.374c0.161-.935-0.433-2.264-2.216-2.92L120.32,39.023l-19.976,9.006A2.842,2.842,0,0,0,99.323,51.1Z" transform="translate(-97 -21)"/>
</svg>
