<svg xmlns="http://www.w3.org/2000/svg" width="20" height="20" viewBox="0 0 20 20">
    <g fill="none" fill-rule="nonzero">
        <path fill="#FFF" stroke="#000" d="M18.6 16.3c0 1.3-1 2.3-2.3 2.3H3.2c-1.3 0-2.3-1-2.3-2.3v-13C.9 2 1.9 1 3.2 1h13.1c1.3 0 2.3 1 2.3 2.3v13z"/>
        <path fill="#000" d="M15.2 5H4.6c-.4 0-.8.4-.8.8v8.1c0 .4.4.8.8.8h10.6c.4 0 .8-.4.8-.8V5.8c-.1-.5-.4-.8-.8-.8zm-6.3 8.6H4.8V6h4.1v7.6zm1.3-5.3h-.8V6h.8v2.3zm4.6 5.3h-4.1v-3.4h4.1v3.4zm0-4.2h-4.1V6h4.1v3.4zm-6.7.3L7.3 8V7h.1v-.8H6.1V7h.1v1l-.7 1.7v3.5h2.6V9.7zM11.5 8h2.7v-.1h.2v-.3h-.2v-.1h-2.7v.1h-.2v.3h.2V8zm2.2-1.2H12c-.3 0-.5.2-.5.4h2.8c-.2-.3-.4-.4-.6-.4zM12 8.7h1.7c.3 0 .5-.2.5-.5h-2.8c.1.3.3.5.6.5zm1.3 4.6l.4-2.6h-1.8l.4 2.6h1z"/>
    </g>
</svg>
